<svg width="30" height="30" viewBox="0 0 1269 1292" fill="none" xmlns="http://www.w3.org/2000/svg">
<rect width="1900" height="1770" fill="white"/>
<path d="M911.62 530.235C880.692 548.558 841.42 571.636 812.751 588.474C804.995 593.03 798.711 596.992 798.711 597.289C798.711 597.586 800.38 598.775 802.442 599.963C815.402 607.193 889.038 650.377 889.038 650.873C889.038 651.17 875.194 659.39 858.307 669.295C841.518 679.2 817.954 692.967 806.075 699.9C794.195 706.932 772.595 719.61 757.966 728.128C743.435 736.646 710.839 755.762 685.606 770.619L639.657 797.559L593.61 771.708C568.279 757.545 547.072 745.956 546.483 745.956C545.501 745.956 528.712 755.663 451.64 800.927C433.869 811.426 415.607 822.023 411.189 824.599C406.673 827.174 403.04 829.65 403.04 829.947C403.04 830.343 441.429 852.728 488.261 879.668C535.094 906.608 574.955 929.587 576.821 930.776C578.686 931.964 593.61 940.581 610.006 949.891L639.755 966.927L665.479 951.872C679.617 943.553 702.689 929.983 716.729 921.762C730.769 913.443 757.475 897.793 776.129 886.898C842.402 848.072 879.612 826.183 927.329 798.153C968.27 774.085 1006.27 751.8 1041.22 731.298C1052.8 724.563 1070.08 714.361 1079.51 708.814C1088.94 703.268 1109.06 691.481 1124.18 682.567C1167.77 657.013 1180.15 649.684 1180.44 649.387C1180.73 649.189 1154.91 634.035 1095.71 599.567C1024.53 558.166 990.656 538.357 965.914 523.896C953.936 516.963 944.019 511.218 943.823 511.317C943.725 511.317 929.194 519.835 911.62 530.235Z" fill="#204B96"/>
<path d="M620.021 30.7475C608.926 37.1854 589.781 48.3776 577.312 55.6079C554.435 68.9791 526.159 85.4206 491.403 105.626C472.454 116.62 466.563 120.087 415.803 149.701C370.051 176.345 346.193 190.211 320.567 205.167C306.822 213.19 268.138 235.673 234.659 255.185C201.179 274.697 159.648 298.864 142.368 308.868C125.088 318.97 108.201 328.776 104.863 330.757L98.6774 334.322V649.882V965.541L111.735 972.969C118.805 977.129 135.986 987.034 149.732 995.056C163.477 1003.08 209.23 1029.72 251.349 1054.29C293.469 1078.75 332.153 1101.33 337.258 1104.3C342.364 1107.28 356.305 1115.4 368.185 1122.33C380.065 1129.26 401.469 1141.74 415.803 1150.06C466.563 1179.68 472.454 1183.14 491.403 1194.14C526.159 1214.34 554.435 1230.79 577.312 1244.16C632.981 1276.74 640.148 1280.7 641.13 1279.91C642.111 1279.12 664.497 1265.95 708.875 1240.19C732.537 1226.43 772.005 1203.45 820.703 1175.12C837.983 1165.02 862.136 1150.95 874.31 1143.82C896.401 1130.95 917.314 1118.76 981.819 1081.23C1000.77 1070.23 1027.87 1054.38 1042.2 1046.06C1067.24 1031.41 1077.74 1025.36 1148.53 984.161C1166.2 973.86 1180.34 965.144 1179.95 964.748C1179.46 964.451 1161.69 953.952 1140.38 941.572C1119.08 929.092 1066.06 898.289 1022.56 872.933C979.07 847.676 942.547 826.48 941.368 825.886C939.503 825.094 932.532 828.858 888.841 854.411C861.154 870.655 828.46 889.771 816.187 896.902C803.914 904.033 793.9 910.075 793.802 910.372C793.802 910.669 804.111 916.81 816.678 924.14C882.46 962.371 885.307 964.154 883.932 965.343C883.245 966.036 848.685 986.538 807.056 1010.9C765.525 1035.37 710.838 1067.46 685.606 1082.32L639.755 1109.26L618.842 1097.17C593.61 1082.51 523.017 1041.41 491.894 1023.28C467.152 1008.82 443.589 995.155 413.349 977.525C402.549 971.285 383.6 960.192 371.131 952.962C358.76 945.732 338.829 934.143 326.949 927.21C315.069 920.277 293.666 907.797 279.331 899.477C264.997 891.157 251.448 883.234 249.091 881.847L244.968 879.47L245.164 649.684L245.459 419.997L268.04 406.824C280.509 399.594 305.447 385.034 323.513 374.535C341.578 364.036 371.916 346.406 390.767 335.412C409.716 324.418 443.687 304.609 466.367 291.337C489.047 278.164 527.73 255.581 552.275 241.319C576.821 227.056 606.57 209.723 618.352 202.79L639.853 190.31L651.242 197.045C657.624 200.809 674.904 210.912 689.729 219.529C704.555 228.145 721.835 238.149 728.02 241.814C734.206 245.478 755.707 257.958 775.638 269.547C795.667 281.234 817.758 294.011 824.827 298.171C831.798 302.331 849.176 312.334 863.314 320.555C877.452 328.677 889.038 335.709 889.038 336.006C889.038 336.303 876.961 343.633 862.332 352.25C847.605 360.867 829.343 371.564 821.783 376.021C814.223 380.478 784.671 397.811 756.002 414.649C727.431 431.486 689.631 453.573 672.155 463.874C654.679 474.076 640.05 482.495 639.657 482.495C639.264 482.495 618.155 470.907 592.923 456.743C552.668 434.161 546.581 430.991 544.617 431.882C543.439 432.477 527.73 441.589 509.763 452.088C481.585 468.728 413.742 508.445 405.691 513.1C404.218 513.892 403.138 514.982 403.236 515.378C403.531 516.17 638.577 651.863 639.755 651.863C640.148 651.863 660.275 640.176 684.526 626.012C728.904 599.864 767.685 577.083 839.456 534.989C861.056 522.311 888.056 506.464 899.347 499.828C910.736 493.192 934.987 478.929 953.347 468.133C996.645 442.778 1069.69 399.891 1109.45 376.516C1126.73 366.314 1149.81 352.745 1160.8 346.307C1178.18 336.105 1180.54 334.521 1178.97 333.431C1177.99 332.837 1166.6 326.102 1153.64 318.574C1129.19 304.411 1101.4 288.167 1064.29 266.575C1013.53 236.961 996.645 227.155 981.819 218.538C956.979 203.978 897.481 169.411 873.82 155.644C861.94 148.711 836.314 133.755 816.874 122.464C797.434 111.073 771.809 96.2166 759.929 89.2834C748.049 82.3502 726.842 70.0686 712.802 61.8478C698.762 53.7261 677.162 41.0482 664.693 33.8178C652.322 26.5875 641.621 20.3477 641.13 19.8524C640.442 19.3572 631.999 23.7152 620.021 30.7475Z" fill="#204B96"/>
</svg>
